<?xml version="1.0" encoding="UTF-8" standalone="no"?>
<!-- Created with Inkscape (http://www.inkscape.org/) -->

<svg
   width="13.162698mm"
   height="19.404552mm"
   viewBox="0 0 13.162698 19.404553"
   version="1.1"
   id="svg1"
   sodipodi:docname="4.svg"
   inkscape:version="1.3.2 (091e20e, 2023-11-25, custom)"
   xmlns:inkscape="http://www.inkscape.org/namespaces/inkscape"
   xmlns:sodipodi="http://sodipodi.sourceforge.net/DTD/sodipodi-0.dtd"
   xmlns="http://www.w3.org/2000/svg"
   xmlns:svg="http://www.w3.org/2000/svg">
  <sodipodi:namedview
     id="namedview1"
     pagecolor="#505050"
     bordercolor="#ffffff"
     borderopacity="1"
     inkscape:showpageshadow="0"
     inkscape:pageopacity="0"
     inkscape:pagecheckerboard="1"
     inkscape:deskcolor="#505050"
     inkscape:document-units="mm"
     inkscape:zoom="5.6568543"
     inkscape:cx="27.577164"
     inkscape:cy="32.792077"
     inkscape:window-width="1443"
     inkscape:window-height="879"
     inkscape:window-x="114"
     inkscape:window-y="113"
     inkscape:window-maximized="0"
     inkscape:current-layer="svg1" />
  <defs
     id="defs1" />
  <path
     style="fill:#6888fc;fill-opacity:1;stroke-width:0.66277"
     id="ellipse66"
     transform="scale(-1,1)"
     sodipodi:type="arc"
     sodipodi:cx="-10.142187"
     sodipodi:cy="3.0269492"
     sodipodi:rx="3.0201182"
     sodipodi:ry="3.0269485"
     sodipodi:start="1.7572123"
     sodipodi:end="4.7191603"
     sodipodi:open="true"
     sodipodi:arc-type="arc"
     d="M -10.70193,6.0014551 A 3.0201182,3.0269485 0 0 1 -13.148227,2.7350196 3.0201182,3.0269485 0 0 1 -10.121737,7.0108948e-5" />
  <path
     style="fill:#6888fc;fill-opacity:1;stroke-width:0.66277"
     id="ellipse67"
     sodipodi:type="arc"
     sodipodi:cx="3.0207121"
     sodipodi:cy="3.0277045"
     sodipodi:rx="3.0201182"
     sodipodi:ry="3.0269485"
     sodipodi:start="1.5838886"
     sodipodi:end="4.7017944"
     sodipodi:open="true"
     sodipodi:arc-type="arc"
     d="M 2.9811731,6.0543935 A 3.0201182,3.0269485 0 0 1 5.9625579e-4,3.0239243 3.0201182,3.0269485 0 0 1 2.9887159,9.2590384e-4" />
  <rect
     style="fill:#6888fc;fill-opacity:1;stroke-width:1.28911"
     id="rect67"
     width="4.8458858"
     height="16.404615"
     x="-13.162703"
     y="2.9999373"
     transform="scale(-1,1)" />
  <rect
     style="fill:#6888fc;fill-opacity:1;stroke-width:0.397392"
     id="rect67-4"
     width="1.8869681"
     height="4.0034394"
     x="-10.203988"
     y="0.00091849873"
     transform="scale(-1,1)" />
  <rect
     style="fill:#6888fc;fill-opacity:1;stroke-width:0.90027"
     id="rect68"
     width="4.8550491"
     height="7.9856248"
     x="-4.8564053"
     y="2.9995291"
     transform="scale(-1,1)" />
  <rect
     style="fill:#6888fc;fill-opacity:1;stroke-width:0.299132"
     id="rect70"
     width="7.9129024"
     height="3.4590173"
     x="-10.926535"
     y="8.3170414"
     transform="scale(-1,1)" />
  <ellipse
     style="fill:#6888fc;fill-opacity:1;stroke-width:0.414701"
     id="ellipse70"
     cx="-2.8145812"
     cy="0.23293518"
     rx="0.0011454608"
     ry="0.025200136"
     transform="scale(-1,1)" />
  <path
     style="fill:#6888fc;fill-opacity:1;stroke-width:0.66277"
     id="path72"
     d="M 3.7833305,13.758515 A 3.0201182,3.0269485 0 0 1 0.57809421,12.610796 3.0201182,3.0269485 0 0 1 0.47451674,9.201024 3.0201182,3.0269485 0 0 1 3.6041534,7.8600011" />
  <path
     style="fill:#6888fc;fill-opacity:1;stroke-width:0.00232699"
     d="m 5.4112817,8.9285001 c -0.01254,-0.01364 -0.983958,-0.500195 -0.978686,-0.802035 l 0.0031,-0.185027 0.210176,-0.207809 c 0.115609,-0.114277 0.210601,-0.208037 0.211032,-0.208286 4.71e-4,-2.53e-4 -0.01066,0.753842 0.725649,0.78076 l 0.266568,0.0097 -0.147944,0.416469 c -0.03045,0.08577 -0.06425,0.222151 -0.136519,0.218393 l -0.139841,-0.0074 z"
     id="path73" />
  <rect
     style="fill:#6888fc;fill-opacity:1;stroke-width:0.364333"
     id="rect74"
     width="7.3275919"
     height="5.541254"
     x="-10.281706"
     y="8.3154736"
     transform="scale(-1,1)" />
  <rect
     style="fill:#6888fc;fill-opacity:1;stroke-width:0.32242"
     id="rect1"
     width="1.8869681"
     height="2.6353536"
     x="-11.045887"
     y="0.58557057"
     transform="scale(-1,1)" />
  <rect
     style="fill:#6888fc;fill-opacity:1;stroke-width:0.400896"
     id="rect67-4-3"
     width="1.8911022"
     height="4.0654511"
     x="-4.8562961"
     y="1.4901161e-08"
     transform="scale(-1,1)" />
  <path
     style="display:inline;fill:#6888fc;fill-opacity:1;stroke-width:0.197099"
     d="M 31.466252,62.764336 V 52.34312 L 20.373514,52.284534 C 8.02235,52.219302 8.6933472,52.282086 6.098796,50.948871 4.3396766,50.044943 2.2117301,47.882863 1.3553424,46.129332 0.03391505,43.423588 0.10589087,44.463431 0.0406096,27.135223 -0.02181815,10.564442 0.01745695,9.5637047 0.81325744,7.448001 2.0826732,4.0731505 5.0562782,1.3804805 8.5736697,0.42076322 9.3657044,0.20465723 10.720025,0.10965762 13.921165,0.04565995 L 18.208,-0.04004307 18.235389,5.6810269 c 0.01506,3.1465884 0.03495,9.7383201 0.04419,14.6482931 l 0.0168,8.927223 0.408119,0.764587 c 0.737297,1.381286 1.019142,1.436735 7.325861,1.44124 l 5.435884,0.0039 V 15.71014 -0.04597234 l 4.375223,0.09633358 c 4.832958,0.10641199 5.428241,0.20705761 7.615939,1.28764156 1.504412,0.7430844 3.398391,2.4388175 4.386322,3.9271977 0.363154,0.5471158 0.903696,1.6744405 1.201204,2.505166 l 0.540923,1.51041 0.047,31.9523875 0.047,31.952388 H 40.57306 31.466252 Z"
     id="path1"
     transform="scale(0.26458333)" />
</svg>
