<?xml version="1.0" encoding="UTF-8" standalone="no"?>
<!-- Created with Inkscape (http://www.inkscape.org/) -->

<svg
   width="15.244515mm"
   height="19.408121mm"
   viewBox="0 0 15.244515 19.408122"
   version="1.1"
   id="svg1"
   xmlns="http://www.w3.org/2000/svg"
   xmlns:svg="http://www.w3.org/2000/svg">
  <defs
     id="defs1" />
  <ellipse
     style="fill:#6888fc;fill-opacity:1;stroke-width:0.66277"
     id="path9-6-4"
     cx="3.0212839"
     cy="3.0271144"
     rx="3.0201182"
     ry="3.0269485" />
  <rect
     style="fill:#6888fc;fill-opacity:1;stroke-width:1.16421"
     id="rect28-8-8"
     width="4.8458858"
     height="13.379824"
     x="0.001210949"
     y="3.0310931" />
  <rect
     style="fill:#6888fc;fill-opacity:1;stroke-width:0.408803"
     id="rect29-2-9"
     width="9.2245722"
     height="5.5417624"
     x="3.0316141"
     y="0.00036963538" />
  <ellipse
     style="fill:#6888fc;fill-opacity:1;stroke-width:0.662948"
     id="path9-6-7-2-3"
     cx="3.021734"
     cy="-16.381172"
     rx="3.0217383"
     ry="3.0269485"
     transform="scale(1,-1)" />
  <rect
     style="fill:#6888fc;fill-opacity:1;stroke-width:0.407324"
     id="rect29-2-8-4-4"
     width="9.1580124"
     height="5.5417624"
     x="3.0336664"
     y="-19.407913"
     transform="scale(1,-1)" />
  <path
     style="fill:#6888fc;fill-opacity:1;stroke-width:0.00232699"
     d="m 5.4021355,4.9212434 c -0.01254,0.01364 -0.983966,0.500194 -0.978684,0.802034 l 0.0031,0.185027 0.21017,0.207809 c 0.115672,0.114277 0.210608,0.208038 0.211031,0.208287 4.7e-4,2.52e-4 -0.01097,-0.753843 0.725663,-0.780761 l 0.266563,-0.0097 -0.14796,-0.416468 c -0.03041,-0.08577 -0.06426,-0.222152 -0.136518,-0.218394 l -0.13981,0.0074 z"
     id="path33-5-5-8-2" />
  <path
     style="fill:#6888fc;fill-opacity:1;stroke-width:0.00232699"
     d="m 5.3991575,14.485659 c -0.01254,-0.01364 -0.983951,-0.500194 -0.978684,-0.802035 l 0.0031,-0.185026 0.21017,-0.207809 c 0.115672,-0.114277 0.210608,-0.208038 0.211047,-0.208287 4.7e-4,-2.52e-4 -0.01097,0.753843 0.725647,0.780761 l 0.266563,0.0097 -0.14796,0.416468 c -0.03041,0.08577 -0.06426,0.222152 -0.136518,0.218393 l -0.13981,-0.0074 z"
     id="path33-5-5-7-0" />
  <ellipse
     style="fill:#6888fc;fill-opacity:1;stroke-width:0.66277"
     id="path9-6-4-1-2"
     cx="-12.223234"
     cy="3.0269465"
     rx="3.0201182"
     ry="3.0269485"
     transform="scale(-1,1)" />
  <rect
     style="fill:#6888fc;fill-opacity:1;stroke-width:1.16421"
     id="rect28-8-8-6-7"
     width="4.8458858"
     height="13.379824"
     x="-15.243307"
     y="3.0309291"
     transform="scale(-1,1)" />
  <ellipse
     style="fill:#6888fc;fill-opacity:1;stroke-width:0.662948"
     id="path9-6-7-2-9-9"
     cx="-12.222776"
     cy="-16.381004"
     rx="3.0217383"
     ry="3.0269485"
     transform="scale(-1)" />
  <path
     style="fill:#6888fc;fill-opacity:1;stroke-width:0.00232699"
     d="m 9.8423835,4.9210724 c 0.0125,0.01364 0.9839705,0.500194 0.9786805,0.802034 l -0.003,0.185027 -0.21017,0.207809 c -0.11567,0.114277 -0.21061,0.208038 -0.21103,0.208287 -4.7e-4,2.52e-4 0.011,-0.753843 -0.7256605,-0.780761 l -0.26657,-0.0097 0.14796,-0.416468 c 0.0304,-0.08577 0.0643,-0.222152 0.13652,-0.218393 l 0.13981,0.0074 z"
     id="path33-5-5-8-2-5" />
  <path
     style="fill:#6888fc;fill-opacity:1;stroke-width:0.00232699"
     d="m 9.8453635,14.485488 c 0.0125,-0.01364 0.9839505,-0.500194 0.9786805,-0.802034 l -0.003,-0.185027 -0.21017,-0.207809 c -0.11567,-0.114277 -0.21061,-0.208038 -0.21105,-0.208287 -4.7e-4,-2.52e-4 0.011,0.753843 -0.7256505,0.780761 l -0.26656,0.0097 0.14796,0.416468 c 0.0304,0.08577 0.0643,0.222152 0.13652,0.218393 l 0.13981,-0.0074 z"
     id="path33-5-5-7-0-7-5" />
</svg>
