<?xml version="1.0" encoding="UTF-8" standalone="no"?><svg inkscape:version="1.3.2 (091e20e, 2023-11-25, custom)" width="224.69922" height="100.30488" version="1.1" id="svg1" sodipodi:docname="sfc.svg" xmlns:inkscape="http://www.inkscape.org/namespaces/inkscape" xmlns:sodipodi="http://sodipodi.sourceforge.net/DTD/sodipodi-0.dtd" xmlns="http://www.w3.org/2000/svg" xmlns:svg="http://www.w3.org/2000/svg"><sodipodi:namedview pagecolor="#505050" bordercolor="#ffffff" borderopacity="1" id="namedview1" inkscape:showpageshadow="0" inkscape:pageopacity="0" inkscape:pagecheckerboard="1" inkscape:deskcolor="#505050" inkscape:zoom="3.5843232" inkscape:cx="89.41716" inkscape:cy="39.756459" inkscape:window-width="1920" inkscape:window-height="1121" inkscape:window-x="-9" inkscape:window-y="-9" inkscape:window-maximized="1" inkscape:current-layer="svg1" /><defs id="defs1"><style id="style1"> .st0 { fill: #585858; } .st1 { fill: #6eba27; } .st2 { fill: #ffe200; } .st3 { fill: #fff; } .st3, .st4 { display: none; } .st5 { fill: #514689; } .st6 { isolation: isolate; } .st7 { fill: #e7000a; } .st8 { fill: #00a9ec; } .st9 { fill: #d0d0d0; } .st10 { fill: #d3d4d6; } .st11 { fill: #6b6b6b; } .st12 { fill: #a7a4e0; } .st13 { fill: #b6b7bc; } </style></defs><path id="shoulderL" data-name="shoulderL" class="st13" d="m 25.2,12.302153 c 0.4,-2 -2.2,-4.5999995 -0.3,-6.0999995 4.2,-3.2 17.5,-5.9 19.9,-6 9,-0.4 17.8,-0.1 26.6,0 1,0 1.7,0.5 1.8,1.5 v 5.8995689 z" inkscape:label="shoulderL" sodipodi:nodetypes="ccccccc" style="display:inline" /><path id="shoulderR" class="st13" d="M 151.5,7.6017224 V 1.7021535 c 0.2,-1 0.8,-1.4 1.8,-1.5 8.8,-0.1 17.6,-0.4 26.6,0 2.4,0.1 15.7,2.8 19.9,6 1.9,1.5 -0.7,4.0999995 -0.3,6.0999995 L 151.4,7.7017224 Z" inkscape:label="shoulderR" sodipodi:nodetypes="cccccccc" style="display:inline" /><path id="body" class="st9" d="m 47.800781,4.1056571 v 0.021484 A 48.099998,48.099998 0 0 0 0,52.205266 48.099998,48.099998 0 0 0 48.099609,100.30488 48.099998,48.099998 0 0 0 75.183594,91.861516 l -0.06055,0.142578 0.09961,-0.101563 c 2.686654,-1.890607 5.174684,-2.493213 6.972658,-2.597656 h 60.289068 c 1.79999,0.1 4.3,0.699611 7,2.599609 l 0.0996,0.09961 -0.0586,-0.134766 A 48.099998,48.099998 0 0 0 176.59961,100.30488 48.099998,48.099998 0 0 0 224.69922,52.205266 48.099998,48.099998 0 0 0 177.5,4.1271415 V 4.1056571 H 176.59961 48.099609 Z" style="display:inline" inkscape:label="body" sodipodi:insensitive="true" /><path id="bodyplates" style="display:inline" class="st13" inkscape:label="bodyplates" d="m 176.80078,9.9044853 c -23.29998,0 -42.20117,18.9011947 -42.20117,42.2011707 0,23.299977 18.90119,42.199219 42.20117,42.199219 13.19999,0 25.09884,-6.099228 32.79883,-15.699219 0.2,-0.299999 -0.2,-1.100391 0,-1.40039 0.2,-0.2 1.00117,0.10039 1.20117,-0.09961 5.2,-6.999993 8.19922,-15.600009 8.19922,-25 C 219,28.80568 200.10076,9.9044853 176.80078,9.9044853 Z M 47.400391,25.705266 A 26.6,26.6 0 0 0 20.800781,52.304875 26.6,26.6 0 0 0 47.400391,78.904484 26.6,26.6 0 0 0 74,52.304875 26.6,26.6 0 0 0 47.400391,25.705266 Z m 0,1.599609 a 25,25 0 0 1 25,25 25,25 0 0 1 -25,25 25,25 0 0 1 -25,-25 25,25 0 0 1 25,-25 z" /><path id="facebuttoncontainer" style="display:inline" class="st10" inkscape:label="facebuttoncontainer" d="M 177.0625,24.607609 C 174.60242,24.559416 172.1,25.341595 170,27.004094 l -21.30078,16.701172 c -4.8,3.699996 -5.59844,10.600395 -1.89844,15.40039 3.7,4.799995 10.59844,5.598825 15.39844,1.798828 L 183.5,44.205266 c 4.8,-3.699997 5.60039,-10.600396 1.90039,-15.400391 -2.08125,-2.699997 -5.17493,-4.135303 -8.33789,-4.197266 z m 21.5,16.701172 c -2.46008,-0.04819 -4.9625,0.733986 -7.0625,2.396485 l -21.30078,16.699218 c -4.8,3.699997 -5.59844,10.600396 -1.89844,15.400391 3.7,4.799995 10.59844,5.600777 15.39844,1.800781 L 205,60.904484 c 4.8,-3.699996 5.60039,-10.600395 1.90039,-15.40039 -2.08125,-2.699998 -5.17493,-4.13335 -8.33789,-4.195313 z" /><circle id="X" class="st8" cx="177" cy="35.604877" r="8.8000002" inkscape:label="X" style="display:inline;fill:#00a9ec;fill-opacity:1" /><circle id="Y" class="st1" cx="155.3" cy="52.504879" r="8.8000002" inkscape:label="Y" style="display:inline" /><circle id="A" class="st7" cx="198.60001" cy="52.304878" r="8.8000002" inkscape:label="A" style="display:inline" /><circle id="B" class="st2" cx="176.89999" cy="69.104874" r="8.8000002" inkscape:label="B" style="display:inline" /><path id="DPADback" style="display:inline" class="st11" inkscape:label="DPADback" d="m 42.900391,32.504094 c -1.661999,0 -3,1.338001 -3,3 v 9.300781 h -9.701172 c -1.661999,0 -3,1.338002 -3,3 v 9 c 0,1.661998 1.338001,3 3,3 h 9.701172 v 9.699219 c 0,1.661998 1.338001,3 3,3 h 9 c 1.661998,0 3,-1.338002 3,-3 v -9.699219 h 9.298828 c 1.661998,0 3,-1.338002 3,-3 v -9 c 0,-1.661998 -1.338002,-3 -3,-3 h -9.298828 v -9.300781 c 0,-1.661999 -1.338002,-3 -3,-3 z" /><path id="DPADmiddle" style="display:inline" class="st0" inkscape:label="DPADmiddle" d="m 47.380859,34.691594 c -0.499999,0 -3.498047,5.90039 -3.498047,5.90039 h -0.002 c -0.299999,0.6 -0.10039,1 0.59961,1 h 5.701172 c 0.799999,-0.1 0.799609,-0.7 0.599609,-1 0,0 -2.900391,-5.90039 -3.400391,-5.90039 z m -0.04687,14.113281 a 3.8,3.8 0 0 0 -3.798828,3.800781 3.8,3.8 0 0 0 3.798828,3.798828 3.8,3.8 0 0 0 3.800782,-3.798828 3.8,3.8 0 0 0 -3.800782,-3.800781 z m 11.222657,0.06445 c -0.313135,0.0086 -0.501953,0.255079 -0.501953,0.736328 v 5.699222 c 0.1,0.799999 0.7,0.799609 1,0.599609 -10e-7,0 5.898437,-2.900391 5.898437,-3.40039 0,-0.5 -5.898437,-3.496094 -5.898437,-3.496094 v -0.0039 c -0.1875,-0.09375 -0.355714,-0.138672 -0.498047,-0.134766 z m -22.636719,0.09961 c -0.142334,-0.0039 -0.310547,0.04102 -0.498047,0.134766 v 0.0039 c 0,0 -5.900391,2.996095 -5.900391,3.496094 0,0.5 5.900391,3.400391 5.900391,3.400391 0.3,0.2 0.9,0.20039 1,-0.59961 v -5.699218 c 0,-0.48125 -0.188819,-0.727735 -0.501953,-0.736329 z m 8.660156,14.427735 c -0.699999,0 -0.899609,0.4 -0.599609,1 h 0.002 c 0,0 2.998047,5.900391 3.498047,5.900391 0.499999,0 3.40039,-5.900391 3.40039,-5.900391 0.2,-0.3 0.20039,-0.9 -0.599609,-1 z" /><path id="SEL" class="st11" d="m 84.4,59.704875 9.1,-6.9 c 1.7,-1.3 4.2,-1 5.5,0.7 v 0 c 1.3,1.7 1,4.2 -0.7,5.5 l -9.1,6.9 c -1.7,1.3 -4.2,1 -5.5,-0.7 v 0 c -1.3,-1.7 -1,-4.2 0.7,-5.5 z" inkscape:label="SEL" style="display:inline" /><path id="STA" class="st11" d="m 109,59.704875 9.1,-6.9 c 1.7,-1.3 4.2,-1 5.5,0.7 v 0 c 1.3,1.7 1,4.2 -0.7,5.5 l -9.1,6.9 c -1.7,1.3 -4.2,1 -5.5,-0.7 v 0 c -1.3,-1.7 -1,-4.2 0.7,-5.5 z" inkscape:label="STA" style="display:inline" /></svg>