<?xml version="1.0" encoding="UTF-8" standalone="no"?>
<!-- Created with Inkscape (http://www.inkscape.org/) -->

<svg
   width="25.969999mm"
   height="25.966mm"
   viewBox="0 0 25.97 25.966"
   version="1.1"
   id="svg1"
   sodipodi:docname="info.svg"
   inkscape:version="1.3.2 (091e20e, 2023-11-25, custom)"
   xmlns:inkscape="http://www.inkscape.org/namespaces/inkscape"
   xmlns:sodipodi="http://sodipodi.sourceforge.net/DTD/sodipodi-0.dtd"
   xmlns="http://www.w3.org/2000/svg"
   xmlns:svg="http://www.w3.org/2000/svg">
  <sodipodi:namedview
     id="namedview1"
     pagecolor="#505050"
     bordercolor="#ffffff"
     borderopacity="1"
     inkscape:showpageshadow="0"
     inkscape:pageopacity="0"
     inkscape:pagecheckerboard="1"
     inkscape:deskcolor="#505050"
     inkscape:document-units="mm"
     inkscape:zoom="5.6568543"
     inkscape:cx="49.585863"
     inkscape:cy="55.949824"
     inkscape:window-width="1920"
     inkscape:window-height="1121"
     inkscape:window-x="-9"
     inkscape:window-y="-9"
     inkscape:window-maximized="1"
     inkscape:current-layer="svg1" />
  <defs
     id="defs1" />
  <path
     style="fill:#ffffff;fill-opacity:1;stroke-width:0.66268"
     id="path9-2-1-4-5-4"
     d="m 10.53188,22.137778 a 3.0209424,3.0252814 0 0 0 3.663316,-5.7e-4 3.0209424,3.0252814 0 0 0 0.969321,-3.53782" />
  <rect
     style="fill:#ffffff;fill-opacity:1;stroke-width:0.853631"
     id="rect28-7-2-3-8"
     width="4.8507457"
     height="7.1860137"
     x="10.532331"
     y="12.618433" />
  <rect
     style="fill:#ffffff;fill-opacity:1;stroke-width:0.345648"
     id="rect28-7-2-3-4-2"
     width="1.8984946"
     height="3.0103531"
     x="10.532724"
     y="19.745176" />
  <rect
     style="fill:#ffffff;fill-opacity:1;stroke-width:0.27617"
     id="rect28-7-2-3-4-2-5"
     width="1.8984946"
     height="1.9217627"
     x="11.769758"
     y="19.272831" />
  <path
     style="fill:#ffffff;fill-opacity:1;stroke-width:0.66268"
     id="path9-2-1-4-5-4-8"
     d="m 15.384368,10.269098 a 3.0209424,3.0252814 0 0 0 -3.663316,5.7e-4 3.0209424,3.0252814 0 0 0 -0.969321,3.537821" />
  <rect
     style="fill:#ffffff;fill-opacity:1;stroke-width:0.386398"
     id="rect28-7-2-3-4-2-3"
     width="1.8984946"
     height="3.7619987"
     x="-15.383525"
     y="-13.41267"
     transform="scale(-1)" />
  <rect
     style="fill:#ffffff;fill-opacity:1;stroke-width:0.27617"
     id="rect28-7-2-3-4-2-5-0"
     width="1.8984946"
     height="1.9217627"
     x="-14.14649"
     y="-13.133361"
     transform="scale(-1)" />
  <circle
     style="fill:#ffffff;fill-opacity:1;stroke-width:0.715523"
     id="path2"
     cx="12.957906"
     cy="5.7761879"
     r="2.4254999" />
  <path
     style="fill:#ffffff;fill-opacity:1;stroke-width:0.0260746"
     d="M 12.276087,24.954733 C 9.8998562,24.80172 7.64936,23.970536 5.7663078,22.550453 5.3029162,22.200992 4.9388156,21.881642 4.4881954,21.429431 2.854301,19.78977 1.7495951,17.747147 1.2622306,15.464558 0.96819,14.087408 0.9239819,12.59763 1.1355737,11.196291 1.6326426,7.9042764 3.4743029,4.9761154 6.2424766,3.0765338 7.1225239,2.4726257 8.2805521,1.9067052 9.3177473,1.5736694 11.691275,0.81154694 14.263803,0.80853384 16.632748,1.5650994 c 1.058665,0.3381049 2.212627,0.9000941 3.103502,1.5114323 2.770923,1.9014686 4.609339,4.8244725 5.106902,8.1197573 0.174197,1.15367 0.174305,2.418125 3.17e-4,3.578071 -0.529443,3.529603 -2.624825,6.652452 -5.70356,8.500288 -0.442768,0.265746 -1.268549,0.671657 -1.753957,0.862154 -1.152737,0.452388 -2.332384,0.718536 -3.589765,0.809908 -0.297443,0.02162 -1.232384,0.02655 -1.520096,0.008 z m 1.905966,-1.022616 c 3.50561,-0.414086 6.488277,-2.336345 8.279721,-5.336084 1.0874,-1.82083 1.647723,-4.099336 1.52067,-6.183665 C 23.884217,10.800933 23.510796,9.4001747 22.810381,8.0157837 22.267587,6.942938 21.611474,6.0397233 20.754818,5.1860677 18.976556,3.4140334 16.734127,2.3414937 14.17036,2.036763 13.669749,1.97726 12.308976,1.97726 11.808365,2.036763 9.2452786,2.3414129 6.9959644,3.4172708 5.2244135,5.1858987 3.5699731,6.8376095 2.5108039,8.894061 2.1287791,11.196291 c -0.1103012,0.664717 -0.1388743,1.032808 -0.1388743,1.789035 0,0.755775 0.028487,1.123117 0.1387388,1.789036 0.4458929,2.69319 1.8648439,5.11458 3.9936368,6.815002 1.6558308,1.322632 3.7145665,2.158405 5.7913226,2.351069 0.147917,0.01372 0.311035,0.02902 0.362484,0.034 0.240003,0.02322 1.608326,-0.0072 1.905966,-0.04232 z"
     id="path4" />
</svg>
